PathFileType	4	(X/Y/Z)	Kaydara																																																																																																																									
DataRate	CameraRate	NumFrames	NumMarkers	Units	OrigDataRate	OrigDataStartFrame	OrigNumFrames																																																																																																																					
30	30	8	41	mm	30	2	192																																																																																																																					
Frame#	Time	PAIB_LFHD			PAIB_RFHD			PAIB_LBHD			PAIB_RBHD			PAIB_LFTShould			PAIB_RFTShould			PAIB_LRRShould			PAIB_RRRShould			PAIB_T10			PAIB_STRN			PAIB_TRUN			PAIB_LSHO			PAIB_LUPA			PAIB_LELB			PAIB_LFRM			PAIB_LWRA			PAIB_LWRB			PAIB_LFIN			PAIB_RSHO			PAIB_RUPA			PAIB_RELB			PAIB_RFRM			PAIB_RWRA			PAIB_RWRB			PAIB_RFIN			PAIB_LFWT			PAIB_RFWT			PAIB_LBWT			PAIB_RBWT			PAIB_LTHI			PAIB_LKNE			PAIB_LSHN			PAIB_LANK			PAIB_LHEE			PAIB_LTOE			PAIB_RTHI			PAIB_RKNE			PAIB_RSHN			PAIB_RANK			PAIB_RHEE			PAIB_RTOE		
		X1	Y1	Z1	X2	Y2	Z2	X3	Y3	Z3	X4	Y4	Z4	X5	Y5	Z5	X6	Y6	Z6	X7	Y7	Z7	X8	Y8	Z8	X9	Y9	Z9	X10	Y10	Z10	X11	Y11	Z11	X12	Y12	Z12	X13	Y13	Z13	X14	Y14	Z14	X15	Y15	Z15	X16	Y16	Z16	X17	Y17	Z17	X18	Y18	Z18	X19	Y19	Z19	X20	Y20	Z20	X21	Y21	Z21	X22	Y22	Z22	X23	Y23	Z23	X24	Y24	Z24	X25	Y25	Z25	X26	Y26	Z26	X27	Y27	Z27	X28	Y28	Z28	X29	Y29	Z29	X30	Y30	Z30	X31	Y31	Z31	X32	Y32	Z32	X33	Y33	Z33	X34	Y34	Z34	X35	Y35	Z35	X36	Y36	Z36	X37	Y37	Z37	X38	Y38	Z38	X39	Y39	Z39	X40	Y40	Z40	X41	Y41	Z41
																																																																																																																												
1	0.03	228.69518	1698.86993	-1969.10797	42.57632	1699.73221	-1977.45911	241.67194	1665.74158	-2095.30548	38.81845	1677.27524	-2091.26907	204.08941	1436.55518	-1962.63885	81.23798	1431.55273	-1966.58859	213.84457	1483.9006	-2114.81369	60.05225	1481.36353	-2106.7746	136.73632	1314.72015	-2172.41943	151.17658	1373.50967	-1916.60172	152.10367	1275.94421	-1881.71371	335.70908	1437.41608	-2043.04825	384.38248	1210.494	-2028.80432	401.62403	1121.0463	-2057.16232	420.28297	1012.47658	-2003.23578	362.83844	909.33235	-1905.08209	401.15883	882.83371	-1967.88361	413.99899	855.09918	-1901.91742	-46.14766	1426.47125	-2022.64999	-107.18739	1249.04373	-2048.88885	-125.34521	1128.79623	-2046.52771	-136.29085	996.35452	-1995.46982	-68.80034	907.84515	-1889.47906	-139.43873	887.39853	-1931.09909	-126.66083	859.98123	-1862.15286	255.1833	967.0652	-1906.41052	18.66903	968.85544	-1910.99319	197.03501	1027.02797	-2119.21539	53.02701	1029.673	-2118.78082	247.59762	750.4332	-2129.24561	283.77228	512.19391	-2050.24536	261.19762	312.95399	-2053.21609	259.5336	130.13181	-2144.8349	201.3862	118.56684	-2188.5788	260.63772	74.98395	-1971.16714	-3.43252	731.37115	-2130.81955	-3.55373	487.53887	-2067.80914	55.52054	303.82885	-2058.38531	32.00268	114.15195	-2146.85837	97.50016	113.49205	-2197.21512	42.76255	77.16446	-1977.18781
2	0.063	228.61521	1699.05182	-1969.09836	41.99518	1699.74762	-1976.20056	241.74871	1665.62347	-2095.17166	38.92256	1677.07733	-2091.51764	203.94869	1436.62262	-1961.88126	81.20917	1431.37344	-1966.48788	214.21659	1484.09775	-2114.24759	60.3862	1481.28738	-2106.70258	137.49337	1314.77768	-2172.14325	150.99995	1373.46725	-1916.1554	152.1937	1275.92682	-1881.30661	335.49686	1437.38007	-2041.85837	384.96277	1210.87067	-2027.36954	402.3225	1121.42769	-2055.45456	420.82687	1013.02513	-2001.21216	363.09467	910.13481	-1903.00186	401.63067	883.44284	-1965.57938	414.32858	855.98396	-1899.62677	-45.88174	1426.09482	-2022.56363	-106.60533	1248.67294	-2049.03259	-124.75074	1128.49297	-2046.78711	-135.55636	995.96451	-1995.54626	-68.28139	908.07617	-1888.88107	-138.40413	887.00432	-1930.71442	-125.44239	859.711	-1861.69357	255.81831	967.13768	-1906.08948	19.30772	968.83049	-1910.9848	197.75909	1026.9883	-2119.01474	53.8556	1029.7197	-2118.69217	248.41457	750.44273	-2129.00406	284.18564	512.14031	-2049.88098	261.35166	312.86037	-2052.99622	258.75328	130.24508	-2143.17932	201.46404	118.64053	-2188.5611	260.62132	74.97118	-1971.14838	-2.78694	731.34468	-2130.5304	-3.18041	487.63439	-2067.51938	55.81699	303.79185	-2058.17917	33.80859	113.64867	-2148.15857	97.69259	113.47444	-2197.12738	42.82176	77.14683	-1977.15942
3	0.097	228.50428	1699.26086	-1969.0538	41.96915	1699.86008	-1976.62903	241.87845	1665.50186	-2095.056	39.01806	1676.89896	-2091.74988	204.07784	1436.77628	-1961.39496	81.57579	1431.31012	-1966.00006	214.66873	1484.34219	-2113.66013	60.78842	1481.18088	-2106.57089	138.37364	1314.86938	-2171.83563	151.04836	1373.44833	-1915.82169	152.32354	1275.92926	-1881.1232	335.8955	1437.82059	-2040.88943	385.26451	1211.3224	-2025.73593	402.83665	1121.79947	-2053.73993	421.1911	1013.51105	-1999.21326	363.13412	910.8979	-1900.90332	401.88793	884.04114	-1963.33755	414.24835	856.71646	-1897.22046	-45.59309	1425.83389	-2022.72156	-106.11157	1248.39317	-2049.1806	-124.21309	1128.19359	-2046.98349	-134.70052	995.67963	-1995.41138	-67.33433	908.50967	-1888.31696	-137.19409	886.7379	-1930.12024	-123.96471	859.74556	-1861.07147	256.49458	967.25899	-1906.00555	19.99103	968.84979	-1911.03867	198.42112	1026.95808	-2118.93448	54.54459	1029.7686	-2118.74756	249.00057	750.327	-2128.78067	284.50956	512.0599	-2049.46182	261.4448	312.71645	-2052.74124	259.62107	129.90721	-2144.74335	201.53221	118.72827	-2188.51898	260.61613	74.97055	-1971.09848	-2.223	731.28998	-2130.47546	-2.71478	487.6302	-2067.25937	56.07253	303.74706	-2057.97913	33.90448	113.77272	-2148.01468	97.73826	113.54472	-2197.19452	42.83907	77.14761	-1977.15622
4	0.13	228.41202	1699.52835	-1969.02252	41.99104	1699.83215	-1976.86264	242.0665	1665.45334	-2094.92523	39.18458	1676.60995	-2091.91742	203.31606	1436.53244	-1959.99603	81.61875	1431.12442	-1965.93048	215.11295	1484.57443	-2113.14117	61.20613	1481.21246	-2106.41434	139.08999	1315.05966	-2171.65085	151.20842	1373.36334	-1915.60669	152.43666	1275.7605	-1881.01913	336.11691	1437.99057	-2039.70474	385.45616	1211.49269	-2024.68399	403.29334	1122.10083	-2052.26532	421.37505	1013.90747	-1997.37839	362.92622	911.67717	-1899.02512	401.86886	884.50974	-1961.2381	413.95607	857.37442	-1894.99969	-45.29446	1425.67307	-2022.77435	-105.55727	1248.16696	-2049.24896	-123.6371	1128.06129	-2047.26456	-133.78123	995.38994	-1995.17075	-65.87517	908.89862	-1887.87079	-135.84079	886.6346	-1929.54315	-122.34884	859.96567	-1860.38437	256.92846	967.23351	-1905.94574	20.36522	968.77457	-1911.11649	199.03889	1026.95969	-2118.97095	55.23283	1029.8484	-2118.90472	249.42997	750.21469	-2128.60016	284.76551	511.98917	-2049.22318	261.59998	312.63321	-2052.58423	259.62509	129.82176	-2144.76105	201.50799	118.73776	-2188.51486	260.59601	74.98502	-1971.08734	-1.51248	731.26862	-2130.40329	-2.27279	487.66144	-2066.94855	56.29736	303.88605	-2057.84332	34.03982	113.77447	-2147.85522	97.73732	113.73635	-2197.15866	42.85618	77.13393	-1977.14386
5	0.163	228.5008	1699.71558	-1968.99094	42.15946	1699.90326	-1977.05185	242.31035	1665.26642	-2094.76715	39.41164	1676.34583	-2092.06955	204.21442	1436.70197	-1960.60425	81.77713	1431.08353	-1965.88913	215.50827	1484.73557	-2112.74872	61.59716	1481.25641	-2106.25916	139.74371	1315.22339	-2171.61667	151.30987	1373.30719	-1915.48859	152.49901	1275.63637	-1880.98343	336.36513	1438.08701	-2038.87756	385.84522	1211.81122	-2023.46283	403.72936	1122.19719	-2051.02203	421.4278	1014.0612	-1995.71259	362.46094	912.20818	-1897.267	401.60774	884.86519	-1959.27048	413.48244	857.93831	-1892.9248	-45.03197	1425.56992	-2022.81479	-105.01575	1248.03726	-2049.36234	-123.01477	1127.96158	-2047.47131	-132.80598	995.3421	-1995.12787	-64.67226	909.09874	-1887.52548	-134.54066	886.65222	-1929.16824	-120.94902	860.24353	-1859.87442	257.30524	967.17606	-1905.92117	20.79564	968.99429	-1911.23978	199.65797	1026.91872	-2119.01993	55.91642	1029.83002	-2119.02664	249.83006	750.13824	-2128.54294	284.95924	511.90914	-2049.08615	261.71885	312.56395	-2052.46353	259.70766	129.85858	-2144.72214	201.57896	118.7282	-2188.50632	260.55096	74.95377	-1971.06339	-0.96082	731.30547	-2130.45944	-2.00882	487.72125	-2066.8103	56.48694	303.83165	-2057.70096	34.03497	113.80619	-2147.8862	97.88966	113.61015	-2197.05414	42.84513	77.15003	-1977.14752
6	0.197	228.69881	1699.75632	-1968.96027	42.44586	1699.94827	-1977.28699	242.61015	1665.09293	-2094.6756	39.73866	1676.15845	-2092.25128	203.98851	1436.49002	-1959.72702	81.92457	1430.98389	-1965.97626	215.96676	1484.7644	-2112.50504	62.00526	1481.27106	-2106.23627	140.24234	1315.29434	-2171.65344	151.41546	1373.17535	-1915.48386	152.52481	1275.49187	-1881.02783	336.59752	1438.02658	-2038.67599	386.00552	1211.65916	-2022.66052	404.00993	1122.12189	-2049.97314	421.30337	1014.0641	-1994.29092	361.92535	912.67822	-1895.7077	401.21273	884.97459	-1957.54654	412.78271	858.26393	-1891.10352	-44.6747	1425.46219	-2022.99057	-104.55302	1247.86201	-2049.53461	-122.32893	1127.70355	-2047.5705	-131.88445	995.13657	-1995.08469	-63.74557	909.3203	-1887.30942	-133.38035	886.5036	-1928.85681	-119.68534	860.37407	-1859.59091	257.55177	967.06299	-1905.85617	20.97065	968.94325	-1911.49857	200.21233	1026.80641	-2119.00208	56.45592	1029.85466	-2119.26376	250.24673	750.11856	-2128.56262	285.16329	511.87141	-2049.13513	261.80573	312.5182	-2052.49878	259.72628	129.76422	-2144.81354	201.67212	118.66825	-2188.54324	260.54232	74.9458	-1971.07956	-0.53993	731.24374	-2130.54657	-1.79051	487.72141	-2066.74515	56.62116	303.79055	-2057.69135	34.12946	113.81469	-2147.95792	98.04234	113.43719	-2196.97723	42.87612	77.1415	-1977.146
7	0.23	228.93631	1699.68277	-1968.88428	42.72899	1699.85413	-1977.38876	242.99465	1664.99329	-2094.59564	40.12625	1676.13449	-2092.41043	204.57407	1436.63483	-1960.42816	81.91758	1430.84854	-1966.46805	216.32948	1484.77631	-2112.41989	62.36819	1481.21307	-2106.4151	140.71236	1315.26947	-2171.75461	151.46807	1373.05664	-1915.51056	152.60597	1275.42274	-1881.12396	336.95023	1438.09006	-2038.2074	385.93655	1211.48354	-2022.0517	404.08131	1121.96655	-2049.16214	421.07346	1014.00322	-1993.21014	361.11469	912.93053	-1894.56436	400.66242	885.00877	-1956.23734	411.98917	858.46664	-1889.71008	-44.41456	1425.38345	-2023.27301	-104.15824	1247.70424	-2049.87274	-121.80054	1127.44179	-2047.7858	-131.17114	994.95132	-1995.21347	-62.79084	909.37592	-1887.36725	-132.49304	886.4595	-1928.9389	-118.65836	860.38673	-1859.56726	257.7479	966.97548	-1905.83771	21.18325	968.96439	-1911.63376	200.72414	1026.75858	-2118.97415	56.98236	1029.85001	-2119.34723	250.72628	750.10818	-2128.56247	285.32913	511.78268	-2049.2627	261.87519	312.52506	-2052.59766	259.75687	129.68809	-2144.74655	201.73187	118.61406	-2188.59711	260.57846	74.97533	-1971.11206	-0.25723	731.2886	-2130.65231	-1.63381	487.76966	-2066.90216	56.7085	303.83011	-2057.69287	34.14791	113.76571	-2147.87201	97.9476	113.46481	-2197.15332	42.89042	77.15205	-1977.16843
8	0.263	229.21949	1699.48212	-1968.82767	43.04255	1699.93698	-1977.57309	243.41394	1664.98245	-2094.65881	40.59171	1676.26816	-2092.52502	204.70779	1436.61896	-1960.54977	82.16449	1430.9523	-1966.50436	216.60425	1484.73495	-2112.5499	62.66518	1481.15601	-2106.71112	141.14017	1315.22034	-2171.92535	151.50928	1373.0661	-1915.68192	152.63904	1275.45609	-1881.22894	337.09476	1437.97531	-2038.04626	386.02055	1211.3942	-2021.68442	403.96648	1121.78581	-2048.62167	420.73181	1014.0638	-1992.63077	360.34882	913.03162	-1893.88779	399.94656	884.97681	-1955.35904	411.07689	858.46756	-1888.71918	-44.23171	1425.3331	-2023.63449	-103.8495	1247.63512	-2050.23102	-121.51459	1127.35611	-2048.24539	-130.72615	994.78363	-1995.49744	-62.14571	909.39705	-1887.75436	-131.9077	886.37169	-1929.18457	-118.07504	860.35385	-1859.86038	257.95254	966.88622	-1905.79102	21.38326	968.9875	-1911.68396	201.11885	1026.7601	-2118.93295	57.38435	1029.93835	-2119.44595	251.04525	750.06233	-2128.5965	285.4995	511.72291	-2049.41177	262.00777	312.46595	-2052.68677	259.83559	129.52075	-2144.89594	201.81648	118.56427	-2188.63602	260.52847	74.95738	-1971.09161	-0.0215	731.38779	-2130.87021	-1.47124	487.77691	-2067.09808	56.79762	303.86318	-2057.85507	34.14026	113.78075	-2148.02917	98.01713	113.38072	-2197.01233	42.86409	77.17156	-1977.20413
